<svg width="96" height="22" viewBox="0 0 96 22" fill="none" xmlns="http://www.w3.org/2000/svg">
<path fill-rule="evenodd" clip-rule="evenodd" d="M21.1671 5.6326L21.2574 5.85808L22.4659 6.63239L21.6609 7.43682L21.7061 7.7978C21.7491 8.14224 21.7666 8.47961 21.7666 8.80145C21.7666 13.1418 20.592 16.3939 18.3507 18.5381C15.2736 21.4925 11.0863 21.412 10.9004 21.4084L10.8943 21.4083H10.8852C7.62765 21.4083 5.06899 20.4181 3.25192 18.5073C1.52158 16.6912 0.702607 14.3028 0.321185 12.329C-0.041425 10.4525 -0.000966724 8.99555 0.00352092 8.83394C0.00373723 8.82615 0.00386997 8.8197 0.00386997 8.8197V5.93175H6.43334V0H12.4561C14.2973 0 16.522 0.558979 17.9829 1.58082C19.4275 2.58951 20.5316 3.98846 21.1662 5.63014L21.1671 5.6326ZM20.1325 9.80528V9.36233L20.1051 8.81057C20.1325 6.72517 19.201 4.76777 17.5571 3.43799C15.8792 2.08499 13.5644 1.63281 11.1044 1.63281H8.04914V8.81739L8.03087 10.5513V10.5536C8.03087 11.3166 8.3073 12.0364 8.83817 12.5567C9.36615 13.0834 10.0841 13.3601 10.8487 13.3601H10.8578C12.3633 13.3601 13.5808 12.1258 13.6658 10.5964L13.6659 10.5948L13.666 10.5932C13.7072 9.73819 13.4689 8.9894 12.8884 8.44304C12.223 7.81266 11.3015 7.62482 10.6618 7.57778V5.9135C11.5136 5.92145 12.9537 6.08462 13.9906 6.99013C14.8436 7.73925 15.3188 8.9138 15.3188 10.5536C15.3188 11.7671 14.8461 12.8933 13.9737 13.7402C13.1097 14.5786 11.9651 15.0263 10.7512 14.9931C8.3794 14.9269 6.43334 12.8965 6.43334 10.4441V7.57368H1.63793V8.82882C1.63793 12.902 2.69634 15.989 4.87535 17.9039C6.84418 19.629 9.13506 19.8668 10.2551 19.8668C10.6026 19.8668 10.8492 19.8423 10.952 19.829C11.2787 19.814 13.3745 19.6855 15.5035 18.4964C17.63 17.3084 20.1325 14.8269 20.1325 9.80528Z" fill="black"/>
<path d="M31.4161 8.99299C30.7575 9.73875 30.4283 10.8428 30.4283 12.3051C30.4283 13.7673 30.7575 14.8714 31.4161 15.6171C32.0892 16.3629 32.9088 16.7358 33.8746 16.7358C34.9136 16.7358 35.7331 16.3483 36.3331 15.5733C36.9478 14.7836 37.2551 13.6942 37.2551 12.3051C37.2551 10.9159 36.9478 9.8338 36.3331 9.05879C35.7331 8.26916 34.9136 7.87434 33.8746 7.87434C32.9088 7.87434 32.0892 8.24722 31.4161 8.99299ZM28.5185 2.25918H30.5161V8.22529C31.3063 6.85074 32.5941 6.16347 34.3795 6.16347C35.799 6.16347 36.9917 6.71914 37.9575 7.83047C38.938 8.94181 39.4282 10.4333 39.4282 12.3051C39.4282 14.1914 38.938 15.6902 37.9575 16.8016C36.9917 17.8983 35.799 18.4466 34.3795 18.4466C32.5941 18.4466 31.3063 17.7594 30.5161 16.3848V18.1615H28.5185V2.25918Z" fill="black"/>
<path d="M43.4041 2.25918V18.1615H41.4065V2.25918H43.4041Z" fill="black"/>
<path d="M53.2914 18.1615V16.4726C52.4865 17.7886 51.25 18.4466 49.5817 18.4466C47.0646 18.4466 45.8061 16.9332 45.8061 13.9063V6.36088H47.8036V13.314C47.8036 14.3961 47.9646 15.2369 48.2866 15.8365C48.6231 16.4214 49.289 16.7138 50.2841 16.7138C51.25 16.7138 51.989 16.3848 52.5012 15.7268C53.028 15.0688 53.2914 14.111 53.2914 12.8534V6.36088H55.289V18.1615H53.2914Z" fill="black"/>
<path d="M68.589 12.9192H59.5013C59.5306 14.1183 59.9037 15.0468 60.6208 15.7049C61.3525 16.3629 62.194 16.6919 63.1452 16.6919C64.7256 16.6919 65.8012 16.0412 66.372 14.7398H68.4354C68.1573 15.8072 67.55 16.6919 66.6134 17.3938C65.6769 18.0957 64.5208 18.4466 63.1452 18.4466C61.3305 18.4466 59.911 17.869 58.8867 16.7138C57.8623 15.5586 57.3501 14.0817 57.3501 12.2831C57.3501 10.4406 57.8915 8.96374 58.9745 7.85241C60.0574 6.72645 61.4257 6.16347 63.0793 6.16347C64.85 6.16347 66.2403 6.81419 67.25 8.11562C68.2598 9.40243 68.7061 11.0036 68.589 12.9192ZM63.0793 7.87434C62.1281 7.87434 61.3159 8.15218 60.6427 8.70784C59.9842 9.26351 59.611 10.097 59.5232 11.2083H66.4817C66.4525 10.3164 66.1305 9.54135 65.5159 8.88332C64.9013 8.21067 64.0891 7.87434 63.0793 7.87434Z" fill="black"/>
<path d="M70.6215 18.7976V6.36088H72.6191V18.7537C72.6191 20.0113 72.4288 20.8667 72.0483 21.32C71.6825 21.7733 70.9435 22 69.8313 22H68.8215V20.333H69.3923C69.9045 20.333 70.2337 20.2306 70.3801 20.0259C70.541 19.8358 70.6215 19.4264 70.6215 18.7976ZM70.6215 2.25918H72.6191V4.67194H70.6215V2.25918Z" fill="black"/>
<path d="M82.9337 13.2263V12.4805C80.9288 12.6706 79.4361 12.9485 78.4556 13.314C77.4898 13.6796 77.0069 14.2426 77.0069 15.003C77.0069 15.5733 77.2117 16.0266 77.6215 16.3629C78.0312 16.6992 78.5873 16.8674 79.2898 16.8674C80.3434 16.8674 81.2142 16.5822 81.902 16.0119C82.5898 15.4417 82.9337 14.5131 82.9337 13.2263ZM78.8507 18.4466C77.6947 18.4466 76.7288 18.1469 75.9532 17.5473C75.1776 16.9332 74.7898 16.0997 74.7898 15.0468C74.7898 14.3742 74.9654 13.7966 75.3166 13.314C75.6825 12.8315 76.2386 12.4367 76.9849 12.1296C77.7459 11.8079 78.5727 11.5593 79.4654 11.3838C80.358 11.2083 81.4629 11.0475 82.78 10.9013V10.6161C82.78 8.70053 81.8873 7.74274 80.102 7.74274C79.2825 7.74274 78.6385 7.94746 78.1703 8.3569C77.702 8.76634 77.4459 9.34394 77.402 10.0897H75.3386C75.4264 8.87601 75.9313 7.9109 76.8532 7.19438C77.7898 6.47786 78.8654 6.1196 80.08 6.1196C81.7044 6.1196 82.8971 6.51442 83.658 7.30405C84.419 8.09369 84.7922 9.322 84.7775 10.989L84.7556 13.7089C84.741 15.6244 84.8434 17.1087 85.0629 18.1615H83.0434C82.9556 17.5912 82.9044 17.0502 82.8897 16.5384C82.1434 17.8106 80.7971 18.4466 78.8507 18.4466Z" fill="black"/>
<path d="M93.9146 6.36088H96L91.7854 18.666C91.4634 19.5872 91.1634 20.2599 90.8854 20.6839C90.622 21.1226 90.2415 21.4516 89.7439 21.671C89.2464 21.8903 88.5586 22 87.6805 22H86.6488V20.333H87.461C88.2074 20.333 88.7415 20.2233 89.0634 20.004C89.4 19.7846 89.6927 19.2509 89.9415 18.4028L90.0293 18.1615L85.7708 6.36088H87.9878L90.9951 15.4636L93.9146 6.36088Z" fill="black"/>
</svg>
